<svg width="1923" height="737" viewBox="0 0 1923 737" fill="none" xmlns="http://www.w3.org/2000/svg">
<g clip-path="url(#clip0_447_254)">
<circle cx="16" cy="63" r="58" fill="white"/>
<circle cx="151.5" cy="63" r="58" fill="white"/>
<circle cx="287" cy="63" r="58" fill="white"/>
<circle cx="422.5" cy="63" r="58" fill="white"/>
<circle cx="558" cy="63" r="58" fill="white"/>
<circle cx="693.5" cy="63" r="58" fill="white"/>
<circle cx="829" cy="63" r="58" fill="white"/>
<circle cx="964.5" cy="63" r="58" fill="white"/>
<circle cx="1100" cy="63" r="58" fill="white"/>
<circle cx="1235.5" cy="63" r="58" fill="white"/>
<circle cx="1371" cy="63" r="58" fill="white"/>
<circle cx="1506.5" cy="63" r="58" fill="white"/>
<circle cx="1642" cy="63" r="58" fill="white"/>
<circle cx="1777.5" cy="63" r="58" fill="white"/>
<circle cx="1913" cy="63" r="58" fill="white"/>
<circle cx="16" cy="190" r="58" fill="white"/>
<circle cx="151.5" cy="190" r="58" fill="white"/>
<circle cx="287" cy="190" r="58" fill="white"/>
<circle cx="422.5" cy="190" r="58" fill="white"/>
<circle cx="558" cy="190" r="58" fill="white"/>
<circle cx="693.5" cy="190" r="58" fill="white"/>
<circle cx="829" cy="190" r="58" fill="white"/>
<circle cx="964.5" cy="190" r="58" fill="white"/>
<circle cx="1100" cy="190" r="58" fill="white"/>
<circle cx="1235.5" cy="190" r="58" fill="white"/>
<circle cx="1371" cy="190" r="58" fill="white"/>
<circle cx="1506.5" cy="190" r="58" fill="white"/>
<circle cx="1642" cy="190" r="58" fill="white"/>
<circle cx="1777.5" cy="190" r="58" fill="white"/>
<circle cx="1913" cy="190" r="58" fill="white"/>
<circle cx="16" cy="317" r="58" fill="white"/>
<circle cx="151.5" cy="317" r="58" fill="white"/>
<circle cx="287" cy="317" r="58" fill="white"/>
<circle cx="422.5" cy="317" r="58" fill="white"/>
<circle cx="558" cy="317" r="58" fill="white"/>
<circle cx="693.5" cy="317" r="58" fill="white"/>
<circle cx="829" cy="317" r="58" fill="white"/>
<circle cx="964.5" cy="317" r="58" fill="white"/>
<circle cx="1100" cy="317" r="58" fill="white"/>
<circle cx="1235.5" cy="317" r="58" fill="white"/>
<circle cx="1371" cy="317" r="58" fill="white"/>
<circle cx="1506.5" cy="317" r="58" fill="white"/>
<circle cx="1642" cy="317" r="58" fill="white"/>
<circle cx="1777.5" cy="317" r="58" fill="white"/>
<circle cx="1913" cy="317" r="58" fill="white"/>
<circle cx="16" cy="444" r="58" fill="white"/>
<circle cx="151.5" cy="444" r="58" fill="white"/>
<circle cx="287" cy="444" r="58" fill="white"/>
<circle cx="422.5" cy="444" r="58" fill="white"/>
<circle cx="558" cy="444" r="58" fill="white"/>
<circle cx="693.5" cy="444" r="58" fill="white"/>
<circle cx="829" cy="444" r="58" fill="white"/>
<circle cx="964.5" cy="444" r="58" fill="white"/>
<circle cx="1100" cy="444" r="58" fill="white"/>
<circle cx="1235.5" cy="444" r="58" fill="white"/>
<circle cx="1371" cy="444" r="58" fill="white"/>
<circle cx="1506.5" cy="444" r="58" fill="white"/>
<circle cx="1642" cy="444" r="58" fill="white"/>
<circle cx="1777.5" cy="444" r="58" fill="white"/>
<circle cx="1913" cy="444" r="58" fill="white"/>
<circle cx="16" cy="571" r="58" fill="white"/>
<circle cx="151.5" cy="571" r="58" fill="white"/>
<circle cx="287" cy="571" r="58" fill="white"/>
<circle cx="422.5" cy="571" r="58" fill="white"/>
<circle cx="558" cy="571" r="58" fill="white"/>
<circle cx="693.5" cy="571" r="58" fill="white"/>
<circle cx="829" cy="571" r="58" fill="white"/>
<circle cx="964.5" cy="571" r="58" fill="white"/>
<circle cx="1100" cy="571" r="58" fill="white"/>
<circle cx="1235.5" cy="571" r="58" fill="white"/>
<circle cx="1371" cy="571" r="58" fill="white"/>
<circle cx="1506.5" cy="571" r="58" fill="white"/>
<circle cx="1642" cy="571" r="58" fill="white"/>
<circle cx="1777.5" cy="571" r="58" fill="white"/>
<circle cx="1913" cy="571" r="58" fill="white"/>
<circle cx="16" cy="698" r="58" fill="white"/>
<circle cx="151.5" cy="698" r="58" fill="white"/>
<circle cx="287" cy="698" r="58" fill="white"/>
<circle cx="422.5" cy="698" r="58" fill="white"/>
<circle cx="558" cy="698" r="58" fill="white"/>
<circle cx="693.5" cy="698" r="58" fill="white"/>
<circle cx="829" cy="698" r="58" fill="white"/>
<circle cx="964.5" cy="698" r="58" fill="white"/>
<circle cx="1100" cy="698" r="58" fill="white"/>
<circle cx="1235.5" cy="698" r="58" fill="white"/>
<circle cx="1371" cy="698" r="58" fill="white"/>
<circle cx="1506.5" cy="698" r="58" fill="white"/>
<circle cx="1642" cy="698" r="58" fill="white"/>
<circle cx="1777.5" cy="698" r="58" fill="white"/>
<circle cx="1913" cy="698" r="58" fill="white"/>
</g>
<defs>
<clipPath id="clip0_447_254">
<rect width="1923" height="737" fill="white"/>
</clipPath>
</defs>
</svg>
