<svg id="Layer_1" data-name="Layer 1" xmlns="http://www.w3.org/2000/svg" viewBox="0 0 1024 1024"><defs><style>.cls-1{fill:#fff;}.cls-2{fill:#ef7f33;}.cls-3{fill:#231f20;}</style></defs><rect class="cls-1" width="1024" height="1024" rx="96.22"/><path class="cls-2" d="M630.68,353.15l-21,19c-2.94,2.65-5.64,5.59-8.67,8.15-4.74,3.88-8.57,8.14-12.88,12.22s-9.48,8.57-14.21,12.93a3.21,3.21,0,0,1-2.65.8H538.6a15.27,15.27,0,0,1,2.28-5.11c4.73-8.86,9.94-17.72,15-26.57,3.84-6.82,7.68-13.6,11.42-20.42A1.75,1.75,0,0,1,569,353Z"/><path class="cls-3" d="M99.25,358.22h71v48.36h-71Zm0,70.58h71V614.23h-71Z"/><path class="cls-3" d="M411,358.22V614H344.41V586.81a89.27,89.27,0,0,1-25.49,23.68,73.72,73.72,0,0,1-34.33,8q-37.9,0-57.89-28.85a119.45,119.45,0,0,1-20-70q0-46.13,22.07-70.57a72.19,72.19,0,0,1,56.27-24.44,78.06,78.06,0,0,1,30.08,5.59,68.17,68.17,0,0,1,24,16.86V358.22ZM339.91,521q0-21.84-9.48-32.59A29.45,29.45,0,0,0,307,477.68,25.71,25.71,0,0,0,286.29,488q-8.39,10.29-8.38,34.58,0,22.74,8.62,33.16a26.71,26.71,0,0,0,21.41,10.61A28.43,28.43,0,0,0,330.62,556q9.11-10.8,9.1-35Z"/><path class="cls-2" d="M660.14,539.11H517.67a46.2,46.2,0,0,0,9.47,25.53,33.69,33.69,0,0,0,26.9,12,40.68,40.68,0,0,0,19.9-5.21,46.24,46.24,0,0,0,12.41-11.7l70,6.44a100.82,100.82,0,0,1-38.79,40.07q-22.7,12.18-65.13,12.13-36.9,0-58-10.37a85,85,0,0,1-35-33.16,99.47,99.47,0,0,1-13.87-53q0-43.49,27.85-70.34t76.92-26.9q39.78,0,62.85,12a81.23,81.23,0,0,1,35.1,35q12.07,22.88,12,59.49Zm-72.42-34c-1.42-13.73-5.11-23.68-11.08-29.51a34.77,34.77,0,0,0-49.08,2.9c-.49.55-1,1.12-1.41,1.7a49.36,49.36,0,0,0-8.2,25Z"/><path class="cls-3" d="M898.67,539.11H756.15a46.2,46.2,0,0,0,9.47,25.53,33.6,33.6,0,0,0,26.86,12,40.73,40.73,0,0,0,19.94-5.21,47.35,47.35,0,0,0,12.13-11.7l70,6.44a100.24,100.24,0,0,1-38.79,40.07q-22.69,12.18-65.13,12.13-36.79,0-58-10.37a85.23,85.23,0,0,1-35-33.16,99.46,99.46,0,0,1-13.79-53q0-43.49,27.85-70.39t76.92-26.9q39.89,0,62.86,12.08a80.83,80.83,0,0,1,35.09,34.91q12.09,22.88,12.08,59.53Zm-72.28-34c-1.42-13.73-5.11-23.68-11.08-29.51a34.76,34.76,0,0,0-49.1,2.5c-.59.65-1.14,1.32-1.68,2a49.48,49.48,0,0,0-8.19,25Z"/></svg>