<?xml version="1.0" encoding="UTF-8"?>
<svg id="Layer_1" xmlns="http://www.w3.org/2000/svg" version="1.1" viewBox="0 0 501.9 219.1">
  <!-- Generator: Adobe Illustrator 29.5.1, SVG Export Plug-In . SVG Version: 2.1.0 Build 141)  -->
  <defs>
    <style>
      .st0 {
        fill: none;
      }

      .st1 {
        isolation: isolate;
      }

      .st2 {
        fill: #ed7d31;
      }

      .st3 {
        fill: #fff;
      }
    </style>
  </defs>
  <path class="st3" d="M413.4,65.1c-3.9,15.5-15.5,27-36.2,27s-40.6-20.3-40.6-45.6S350.2,0,377.7,0s33.1,12.4,35.7,27.4h-13.3c-3-9.2-9.1-16.5-22.9-16.5s-26.8,17.3-26.8,35.1,7.2,35.2,27.3,35.2,19.2-8,22.3-16.1h13.4Z"/>
  <path class="st3" d="M443.1,65.2l-9.1,25.7h-13.2L452.4,1.3h16.5l33,89.6h-14.2l-9.5-25.7h-35.1ZM475,53.9c-8.1-22.7-12.7-35.1-14.7-42.2h-.1c-2.2,7.8-7.3,22.8-13.8,42.2h28.6Z"/>
  <g>
    <path class="st3" d="M1.8,2h23.8v16.2H1.8V2ZM1.8,25.7h23.8v62.2H1.8V25.7Z"/>
    <path class="st3" d="M106.4,2v85.9h-22.3v-9.2c-3.1,3.9-6,6.5-8.6,7.9-3.4,1.8-7.3,2.7-11.5,2.7-8.5,0-15-3.2-19.4-9.7-4.5-6.4-6.7-14.3-6.7-23.5s2.5-18.2,7.4-23.7,11.2-8.2,18.8-8.2,7.1.6,10.1,1.9,5.7,3.1,8.1,5.6V2h24.1ZM82.5,56.6c0-4.9-1-8.5-3.1-10.9s-4.7-3.6-7.9-3.6-5.1,1.2-7,3.5-2.8,6.2-2.8,11.6,1,8.8,2.9,11.2c1.9,2.4,4.3,3.5,7.2,3.5s5.6-1.2,7.6-3.6c2.1-2.4,3.1-6.3,3.1-11.7Z"/>
    <path class="st2" d="M190,62.7h-47.8c.4,3.8,1.5,6.7,3.1,8.6,2.3,2.7,5.3,4,9,4s4.6-.6,6.7-1.8c1.3-.7,2.7-2.1,4.2-3.9l23.5,2.2c-3.6,6.3-7.9,10.7-13,13.4-5.1,2.7-12.4,4.1-21.9,4.1s-14.7-1.2-19.5-3.5c-4.7-2.3-8.6-6-11.7-11.1s-4.7-11-4.7-17.8c0-9.7,3.1-17.6,9.3-23.6,6.2-6,14.8-9,25.8-9s15.9,1.3,21.1,4,9.1,6.6,11.8,11.7,4,11.8,4,20v2.7h0ZM165.8,51.3c-.5-4.6-1.7-7.9-3.7-9.9-2-2-4.7-3-7.9-3s-6.8,1.5-9.1,4.5c-1.4,1.9-2.4,4.7-2.8,8.4,0,0,23.5,0,23.5,0Z"/>
    <path class="st3" d="M270.1,62.7h-47.8c.4,3.8,1.5,6.7,3.1,8.6,2.3,2.7,5.3,4,9,4s4.6-.6,6.7-1.8c1.3-.7,2.7-2.1,4.2-3.9l23.5,2.2c-3.6,6.3-7.9,10.7-13,13.4-5.1,2.7-12.4,4.1-21.9,4.1s-14.7-1.2-19.5-3.5c-4.7-2.3-8.6-6-11.7-11.1-3.1-5.1-4.7-11-4.7-17.8,0-9.7,3.1-17.6,9.3-23.6s14.8-9,25.8-9,15.9,1.3,21.1,4,9.1,6.6,11.8,11.7c2.7,5.1,4,11.8,4,20v2.7s.1,0,.1,0ZM245.8,51.3c-.5-4.6-1.7-7.9-3.7-9.9-2-2-4.7-3-7.9-3s-6.8,1.5-9.1,4.5c-1.4,1.9-2.4,4.7-2.8,8.4,0,0,23.5,0,23.5,0Z"/>
  </g>
  <polygon class="st2" points="139.4 18.5 151.2 18.5 170.5 .3 149.4 .3 139.4 18.5"/>
  <rect class="st0" y="197.9" width="501.9" height="42.4"/>
  <g class="st1">
    <path class="st3" d="M82.4,187.4l-5.7-.6c.2-1,.5-1.8.9-2.4.4-.6,1-1.1,1.8-1.5.5-.3,1.3-.5,2.3-.7s2-.2,3.1-.2c1.8,0,3.2.1,4.3.3s2,.6,2.7,1.3c.5.4.9,1.1,1.2,1.9.3.8.4,1.6.4,2.3v6.9c0,.7,0,1.3.1,1.7,0,.4.3.9.6,1.6h-5.6c-.2-.4-.4-.7-.4-.9,0-.2-.1-.5-.2-1-.8.8-1.6,1.3-2.3,1.6-1.1.4-2.3.6-3.7.6s-3.3-.4-4.2-1.3-1.4-1.9-1.4-3.2.3-2.2,1-2.9,2-1.3,3.8-1.7c2.2-.4,3.7-.8,4.4-.9.7-.2,1.4-.4,2.1-.7,0-.7-.2-1.2-.5-1.5s-.8-.4-1.6-.4-1.7.2-2.2.5c-.4.2-.7.7-.9,1.4ZM87.6,190.5c-.8.3-1.7.6-2.6.8-1.2.3-2,.6-2.3,1-.3.3-.5.7-.5,1.1s.2.9.5,1.1c.3.3.8.4,1.4.4s1.3-.2,1.9-.5,1-.7,1.2-1.2.4-1.1.4-1.8v-1Z"/>
    <path class="st3" d="M97.1,182.3h5.6v2.5c.5-1.1,1.1-1.9,1.7-2.3s1.3-.6,2.1-.6,1.8.3,2.9.8l-1.8,4.2c-.7-.3-1.3-.4-1.7-.4-.8,0-1.4.3-1.8,1-.6.9-.9,2.6-.9,5.1v5.2h-6v-15.6Z"/>
    <path class="st3" d="M122.4,191.8l5.7.6c-.3,1.2-.8,2.2-1.5,3.1-.7.9-1.6,1.5-2.7,2s-2.5.7-4.2.7-3-.2-4.1-.5c-1.1-.3-2-.8-2.8-1.5-.8-.7-1.4-1.5-1.9-2.4s-.7-2.2-.7-3.7.3-2.9.8-4c.4-.8.9-1.5,1.6-2.1.7-.6,1.4-1.1,2.1-1.4,1.2-.5,2.7-.7,4.5-.7s4.5.5,5.8,1.4,2.3,2.2,2.8,4l-5.6.7c-.2-.7-.5-1.2-1-1.5-.5-.3-1.1-.5-1.9-.5s-1.8.4-2.4,1.1c-.6.7-.9,1.8-.9,3.2s.3,2.2.9,2.9,1.4,1,2.3,1,1.4-.2,2-.6.9-1,1.2-1.8Z"/>
    <path class="st3" d="M130.3,176.4h6v7.9c.8-.8,1.6-1.4,2.4-1.8s1.7-.5,2.8-.5c1.6,0,2.9.5,3.8,1.5s1.4,2.5,1.4,4.5v9.9h-6v-8.6c0-1-.2-1.7-.5-2.1s-.9-.6-1.5-.6-1.3.3-1.8.8-.7,1.5-.7,2.9v7.5h-6v-21.5Z"/>
    <path class="st3" d="M150.6,176.4h6v4.1h-6v-4.1ZM150.6,182.3h6v15.6h-6v-15.6Z"/>
    <path class="st3" d="M167.5,176.4v5.9h3.3v4.4h-3.3v5.5c0,.7,0,1.1.2,1.3.2.3.5.5,1,.5s1.1-.1,1.8-.4l.4,4.1c-1.5.3-2.9.5-4.1.5s-2.6-.2-3.3-.6c-.7-.4-1.2-1-1.6-1.7-.3-.8-.5-2-.5-3.8v-5.5h-2.2v-4.4h2.2v-2.9l6-3.1Z"/>
    <path class="st3" d="M190.9,191.6h-12c.1,1,.4,1.7.8,2.1.6.7,1.3,1,2.3,1s1.1-.1,1.7-.4c.3-.2.7-.5,1-1l5.9.5c-.9,1.6-2,2.7-3.3,3.4-1.3.7-3.1,1-5.5,1s-3.7-.3-4.9-.9c-1.2-.6-2.2-1.5-2.9-2.8-.8-1.3-1.2-2.8-1.2-4.5,0-2.4.8-4.4,2.3-5.9s3.7-2.3,6.5-2.3,4,.3,5.3,1,2.3,1.7,2.9,2.9,1,2.9,1,5v.7ZM184.8,188.7c-.1-1.2-.4-2-.9-2.5s-1.2-.7-2-.7-1.7.4-2.3,1.1c-.4.5-.6,1.2-.7,2.1h5.9Z"/>
    <path class="st3" d="M205.2,191.8l5.7.6c-.3,1.2-.8,2.2-1.5,3.1-.7.9-1.6,1.5-2.7,2s-2.5.7-4.2.7-3-.2-4.1-.5c-1.1-.3-2-.8-2.8-1.5-.8-.7-1.4-1.5-1.9-2.4s-.7-2.2-.7-3.7.3-2.9.8-4c.4-.8.9-1.5,1.6-2.1.7-.6,1.4-1.1,2.1-1.4,1.2-.5,2.7-.7,4.5-.7s4.5.5,5.8,1.4,2.3,2.2,2.8,4l-5.6.7c-.2-.7-.5-1.2-1-1.5-.5-.3-1.1-.5-1.9-.5s-1.8.4-2.4,1.1c-.6.7-.9,1.8-.9,3.2s.3,2.2.9,2.9,1.4,1,2.3,1,1.4-.2,2-.6.9-1,1.2-1.8Z"/>
    <path class="st3" d="M220.8,176.4v5.9h3.3v4.4h-3.3v5.5c0,.7,0,1.1.2,1.3.2.3.5.5,1,.5s1.1-.1,1.8-.4l.4,4.1c-1.5.3-2.9.5-4.1.5s-2.6-.2-3.3-.6c-.7-.4-1.2-1-1.6-1.7-.3-.8-.5-2-.5-3.8v-5.5h-2.2v-4.4h2.2v-2.9l6-3.1Z"/>
    <path class="st3" d="M243.4,197.9h-5.6v-2.5c-.8,1-1.7,1.8-2.5,2.2s-1.9.7-3.1.7-2.9-.5-3.9-1.5c-.9-1-1.4-2.5-1.4-4.5v-9.9h6v8.6c0,1,.2,1.7.5,2.1s.9.6,1.5.6,1.3-.3,1.8-.8.7-1.5.7-2.9v-7.5h6v15.6Z"/>
    <path class="st3" d="M247,182.3h5.6v2.5c.5-1.1,1.1-1.9,1.7-2.3s1.3-.6,2.1-.6,1.8.3,2.9.8l-1.8,4.2c-.7-.3-1.3-.4-1.7-.4-.8,0-1.4.3-1.8,1-.6.9-.9,2.6-.9,5.1v5.2h-6v-15.6Z"/>
    <path class="st3" d="M278.1,191.6h-12c.1,1,.4,1.7.8,2.1.6.7,1.3,1,2.3,1s1.1-.1,1.7-.4c.3-.2.7-.5,1-1l5.9.5c-.9,1.6-2,2.7-3.3,3.4-1.3.7-3.1,1-5.5,1s-3.7-.3-4.9-.9c-1.2-.6-2.2-1.5-2.9-2.8-.8-1.3-1.2-2.8-1.2-4.5,0-2.4.8-4.4,2.3-5.9s3.7-2.3,6.5-2.3,4,.3,5.3,1,2.3,1.7,2.9,2.9,1,2.9,1,5v.7ZM272,188.7c-.1-1.2-.4-2-.9-2.5s-1.2-.7-2-.7-1.7.4-2.3,1.1c-.4.5-.6,1.2-.7,2.1h5.9Z"/>
    <path class="st3" d="M290.9,184.8h5.6v-5.6h4.7v5.6h5.6v4.7h-5.6v5.6h-4.7v-5.6h-5.6v-4.7Z"/>
    <path class="st3" d="M337,176.4v21.5h-5.6v-2.3c-.8,1-1.5,1.6-2.1,2-.9.4-1.8.7-2.9.7-2.1,0-3.7-.8-4.9-2.4s-1.7-3.6-1.7-5.9.6-4.6,1.9-5.9,2.8-2.1,4.7-2.1,1.8.2,2.5.5,1.4.8,2,1.4v-7.4h6ZM331,190.1c0-1.2-.3-2.1-.8-2.7-.5-.6-1.2-.9-2-.9s-1.3.3-1.7.9-.7,1.5-.7,2.9.2,2.2.7,2.8c.5.6,1.1.9,1.8.9s1.4-.3,1.9-.9.8-1.6.8-2.9Z"/>
    <path class="st3" d="M357.9,191.6h-12c.1,1,.4,1.7.8,2.1.6.7,1.3,1,2.3,1s1.1-.1,1.7-.4c.3-.2.7-.5,1-1l5.9.5c-.9,1.6-2,2.7-3.3,3.4-1.3.7-3.1,1-5.5,1s-3.7-.3-4.9-.9c-1.2-.6-2.2-1.5-2.9-2.8-.8-1.3-1.2-2.8-1.2-4.5,0-2.4.8-4.4,2.3-5.9s3.7-2.3,6.5-2.3,4,.3,5.3,1,2.3,1.7,2.9,2.9,1,2.9,1,5v.7ZM351.8,188.7c-.1-1.2-.4-2-.9-2.5s-1.2-.7-2-.7-1.7.4-2.3,1.1c-.4.5-.6,1.2-.7,2.1h5.9Z"/>
    <path class="st3" d="M359.6,193.6l5.9-.6c.2.7.6,1.2,1,1.5s1,.5,1.8.5,1.4-.2,1.9-.5c.3-.3.5-.6.5-1s-.2-.8-.7-1c-.3-.2-1.2-.4-2.6-.6-2.1-.4-3.5-.7-4.3-1-.8-.3-1.5-.8-2-1.6-.6-.7-.8-1.6-.8-2.5s.3-1.9.9-2.6,1.4-1.3,2.5-1.7c1-.4,2.4-.5,4.2-.5s3.2.1,4.1.4,1.6.7,2.2,1.3,1.1,1.4,1.5,2.4l-5.7.6c-.1-.5-.4-.9-.7-1.1-.5-.3-1-.5-1.7-.5s-1.2.1-1.5.4-.5.5-.5.9.2.7.6.9c.4.2,1.2.4,2.5.5,2,.2,3.5.5,4.4.9s1.7,1,2.2,1.7c.5.7.8,1.6.8,2.4s-.3,1.8-.8,2.6-1.4,1.5-2.6,2c-1.2.5-2.8.8-4.8.8s-4.9-.4-6.1-1.2-2-2-2.3-3.5Z"/>
    <path class="st3" d="M379.2,176.4h6v4.1h-6v-4.1ZM379.2,182.3h6v15.6h-6v-15.6Z"/>
    <path class="st3" d="M399.8,182.3h5.6v15.4c0,1-.2,1.9-.6,2.8-.4.9-1,1.6-1.7,2.1s-1.6.9-2.6,1.2-2.3.4-3.6.4c-3.1,0-5.3-.5-6.4-1.4s-1.8-2.2-1.8-3.8,0-.5,0-.8l5.8.7c.1.5.4.9.7,1.1.4.3,1,.5,1.7.5s1.5-.2,1.9-.7.6-1.3.6-2.4v-2.4c-.6.7-1.2,1.2-1.8,1.5-.9.5-1.9.7-3,.7-2.1,0-3.8-.9-5-2.7-.9-1.3-1.4-3-1.4-5.1s.6-4.3,1.8-5.5,2.7-1.9,4.6-1.9,2.2.2,3,.6,1.5,1.1,2.2,2v-2.3ZM394.2,189.9c0,1.1.2,2,.7,2.5.5.5,1.1.8,1.9.8s1.4-.3,1.9-.8c.5-.6.8-1.4.8-2.5s-.3-2-.8-2.6c-.5-.6-1.2-.9-1.9-.9s-1.4.3-1.8.8c-.5.6-.7,1.5-.7,2.7Z"/>
    <path class="st3" d="M409,182.3h5.6v2.5c.8-1,1.7-1.8,2.5-2.2.8-.4,1.9-.7,3.1-.7s2.9.5,3.9,1.5c.9,1,1.4,2.5,1.4,4.5v9.9h-6v-8.6c0-1-.2-1.7-.5-2.1s-.9-.6-1.5-.6-1.3.3-1.8.8-.7,1.5-.7,2.9v7.5h-6v-15.6Z"/>
  </g>
</svg>