<svg id="Layer_1" data-name="Layer 1" xmlns="http://www.w3.org/2000/svg" viewBox="0 0 498.65 92.04"><defs><style>.cls-1{fill:#fff;}.cls-2{fill:#ed7d31;}</style></defs><polygon class="cls-1" points="0 26.37 24.68 90.39 0 90.39 0 26.37"/><polygon class="cls-1" points="24.68 90.39 0 26.37 24.68 26.37 24.68 90.39"/><polygon class="cls-1" points="0 2.05 24.68 18.5 0 18.5 0 2.05"/><polygon class="cls-1" points="24.68 18.5 0 2.05 24.68 2.05 24.68 18.5"/><polygon class="cls-1" points="58.3 91.46 65.45 91.81 64.02 91.81 58.3 91.46"/><polygon class="cls-1" points="70.81 91.1 58.3 91.46 65.45 91.81 70.81 91.1"/><polygon class="cls-1" points="53.29 89.67 70.81 91.1 58.3 91.46 53.29 89.67"/><polygon class="cls-1" points="76.18 88.95 53.29 89.67 70.81 91.1 76.18 88.95"/><polygon class="cls-1" points="76.54 88.6 76.18 88.95 53.29 89.67 76.54 88.6"/><polygon class="cls-1" points="49 86.81 76.54 88.6 53.29 89.67 49 86.81"/><polygon class="cls-1" points="80.47 85.73 49 86.81 76.54 88.6 80.47 85.73"/><polygon class="cls-1" points="45.06 83.23 80.47 85.73 49 86.81 45.06 83.23"/><polygon class="cls-1" points="44.35 81.8 45.06 83.23 80.47 85.73 44.35 81.8"/><polygon class="cls-1" points="84.76 81.09 44.35 81.8 80.47 85.73 84.76 81.09"/><polygon class="cls-1" points="84.76 81.09 108.01 90.39 84.76 90.39 84.76 81.09"/><polygon class="cls-1" points="41.49 77.51 84.76 81.09 44.35 81.8 41.49 77.51"/><polygon class="cls-1" points="72.24 73.93 41.49 77.51 84.76 81.09 72.24 73.93"/><polygon class="cls-1" points="72.24 73.93 84.76 81.09 108.01 90.39 72.24 73.93"/><polygon class="cls-1" points="69.38 73.22 72.24 73.93 41.49 77.51 69.38 73.22"/><polygon class="cls-1" points="77.25 72.5 72.24 73.93 108.01 90.39 77.25 72.5"/><polygon class="cls-1" points="39.34 72.5 69.38 73.22 41.49 77.51 39.34 72.5"/><polygon class="cls-1" points="64.73 70 39.34 72.5 69.38 73.22 64.73 70"/><polygon class="cls-1" points="80.11 70 77.25 72.5 108.01 90.39 80.11 70"/><polygon class="cls-1" points="64.38 69.64 64.73 70 39.34 72.5 64.38 69.64"/><polygon class="cls-1" points="38.27 67.14 64.38 69.64 39.34 72.5 38.27 67.14"/><polygon class="cls-1" points="82.26 66.06 80.11 70 108.01 90.39 82.26 66.06"/><polygon class="cls-1" points="62.59 64.99 38.27 67.14 64.38 69.64 62.59 64.99"/><polygon class="cls-1" points="37.2 61.41 62.59 64.99 38.27 67.14 37.2 61.41"/><polygon class="cls-1" points="82.97 60.34 82.26 66.06 108.01 90.39 82.97 60.34"/><polygon class="cls-1" points="61.87 58.55 37.2 61.41 62.59 64.99 61.87 58.55"/><polygon class="cls-1" points="83.33 58.2 82.97 60.34 108.01 90.39 83.33 58.2"/><polygon class="cls-1" points="37.2 57.84 61.87 58.55 37.2 61.41 37.2 57.84"/><polygon class="cls-1" points="61.87 56.77 37.2 57.84 61.87 58.55 61.87 56.77"/><polygon class="cls-1" points="82.62 52.12 83.33 58.2 108.01 90.39 82.62 52.12"/><polygon class="cls-1" points="37.55 51.4 61.87 56.77 37.2 57.84 37.55 51.4"/><polygon class="cls-1" points="62.59 50.69 37.55 51.4 61.87 56.77 62.59 50.69"/><polygon class="cls-1" points="80.47 47.47 82.62 52.12 108.01 90.39 80.47 47.47"/><polygon class="cls-1" points="64.73 46.75 62.59 50.69 37.55 51.4 64.73 46.75"/><polygon class="cls-1" points="38.63 45.68 64.73 46.75 37.55 51.4 38.63 45.68"/><polygon class="cls-1" points="66.88 44.61 38.63 45.68 64.73 46.75 66.88 44.61"/><polygon class="cls-1" points="71.89 43.17 66.88 44.61 38.63 45.68 71.89 43.17"/><polygon class="cls-1" points="40.41 40.67 71.89 43.17 38.63 45.68 40.41 40.67"/><polygon class="cls-1" points="42.56 36.02 40.41 40.67 71.89 43.17 42.56 36.02"/><polygon class="cls-1" points="42.56 36.02 71.89 43.17 75.46 43.89 42.56 36.02"/><polygon class="cls-1" points="45.06 33.16 42.56 36.02 75.46 43.89 45.06 33.16"/><polygon class="cls-1" points="82.97 32.45 45.06 33.16 75.46 43.89 82.97 32.45"/><polygon class="cls-1" points="82.97 32.45 75.46 43.89 80.11 46.75 82.97 32.45"/><polygon class="cls-1" points="82.97 32.45 80.11 46.75 80.47 47.47 82.97 32.45"/><polygon class="cls-1" points="82.97 32.45 80.47 47.47 108.01 90.39 82.97 32.45"/><polygon class="cls-1" points="49 29.59 82.97 32.45 45.06 33.16 49 29.59"/><polygon class="cls-1" points="79.4 29.59 49 29.59 82.97 32.45 79.4 29.59"/><polygon class="cls-1" points="53.65 27.08 79.4 29.59 49 29.59 53.65 27.08"/><polygon class="cls-1" points="74.75 26.72 53.65 27.08 79.4 29.59 74.75 26.72"/><polygon class="cls-1" points="70.1 25.29 74.75 26.72 53.65 27.08 70.1 25.29"/><polygon class="cls-1" points="58.65 25.29 70.1 25.29 53.65 27.08 58.65 25.29"/><polygon class="cls-1" points="64.38 24.94 58.65 25.29 70.1 25.29 64.38 24.94"/><polygon class="cls-1" points="82.97 2.05 82.97 32.45 108.01 90.39 82.97 2.05"/><polygon class="cls-1" points="108.01 90.39 82.97 2.05 108.01 2.05 108.01 90.39"/><polygon class="cls-2" points="150.21 91.46 157.72 91.81 156.65 91.81 150.21 91.46"/><polygon class="cls-2" points="164.16 91.46 150.21 91.46 157.72 91.81 164.16 91.46"/><polygon class="cls-2" points="144.49 90.74 164.16 91.46 150.21 91.46 144.49 90.74"/><polygon class="cls-2" points="169.88 90.74 144.49 90.74 164.16 91.46 169.88 90.74"/><polygon class="cls-2" points="139.48 89.31 169.88 90.74 144.49 90.74 139.48 89.31"/><polygon class="cls-2" points="174.89 89.31 139.48 89.31 169.88 90.74 174.89 89.31"/><polygon class="cls-2" points="136.62 88.24 174.89 89.31 139.48 89.31 136.62 88.24"/><polygon class="cls-2" points="179.18 87.52 136.62 88.24 174.89 89.31 179.18 87.52"/><polygon class="cls-2" points="181.33 86.45 179.18 87.52 136.62 88.24 181.33 86.45"/><polygon class="cls-2" points="131.97 85.38 181.33 86.45 136.62 88.24 131.97 85.38"/><polygon class="cls-2" points="185.62 82.87 131.97 85.38 181.33 86.45 185.62 82.87"/><polygon class="cls-2" points="128.04 81.8 185.62 82.87 131.97 85.38 128.04 81.8"/><polygon class="cls-2" points="189.19 78.94 128.04 81.8 185.62 82.87 189.19 78.94"/><polygon class="cls-2" points="157.36 77.51 189.19 78.94 128.04 81.8 157.36 77.51"/><polygon class="cls-2" points="124.82 76.79 157.36 77.51 128.04 81.8 124.82 76.79"/><polygon class="cls-2" points="124.46 76.79 124.82 76.79 157.36 77.51 124.46 76.79"/><polygon class="cls-2" points="152.36 76.44 124.46 76.79 157.36 77.51 152.36 76.44"/><polygon class="cls-2" points="162.73 76.44 157.36 77.51 189.19 78.94 162.73 76.44"/><polygon class="cls-2" points="164.16 75.72 162.73 76.44 189.19 78.94 164.16 75.72"/><polygon class="cls-2" points="192.77 73.93 164.16 75.72 189.19 78.94 192.77 73.93"/><polygon class="cls-2" points="148.06 73.22 152.36 76.44 124.46 76.79 148.06 73.22"/><polygon class="cls-2" points="122.31 72.14 148.06 73.22 124.46 76.79 122.31 72.14"/><polygon class="cls-2" points="168.09 71.79 192.77 73.93 164.16 75.72 168.09 71.79"/><polygon class="cls-2" points="168.45 71.43 168.09 71.79 192.77 73.93 168.45 71.43"/><polygon class="cls-2" points="146.28 70.36 122.31 72.14 148.06 73.22 146.28 70.36"/><polygon class="cls-2" points="120.53 66.78 146.28 70.36 122.31 72.14 120.53 66.78"/><polygon class="cls-2" points="144.85 64.28 120.53 66.78 146.28 70.36 144.85 64.28"/><polygon class="cls-2" points="193.84 61.77 193.84 64.28 144.85 64.28 193.84 61.77"/><polygon class="cls-2" points="119.81 61.06 193.84 61.77 144.85 64.28 119.81 61.06"/><polygon class="cls-2" points="119.81 61.06 144.85 64.28 120.53 66.78 119.81 61.06"/><polygon class="cls-2" points="119.81 58.55 119.81 61.06 193.84 61.77 119.81 58.55"/><polygon class="cls-2" points="193.84 56.41 119.81 58.55 193.84 61.77 193.84 56.41"/><polygon class="cls-2" points="144.85 52.83 193.84 56.41 119.81 58.55 144.85 52.83"/><polygon class="cls-2" points="193.84 56.41 144.85 52.83 169.17 52.83 193.84 56.41"/><polygon class="cls-2" points="120.17 52.47 144.85 52.83 119.81 58.55 120.17 52.47"/><polygon class="cls-2" points="193.13 50.69 169.17 52.83 193.84 56.41 193.13 50.69"/><polygon class="cls-2" points="145.56 48.54 120.17 52.47 144.85 52.83 145.56 48.54"/><polygon class="cls-2" points="121.24 47.11 145.56 48.54 120.17 52.47 121.24 47.11"/><polygon class="cls-2" points="167.74 46.39 193.13 50.69 169.17 52.83 167.74 46.39"/><polygon class="cls-2" points="191.7 45.68 167.74 46.39 193.13 50.69 191.7 45.68"/><polygon class="cls-2" points="147.71 43.89 121.24 47.11 145.56 48.54 147.71 43.89"/><polygon class="cls-2" points="165.23 42.46 191.7 45.68 167.74 46.39 165.23 42.46"/><polygon class="cls-2" points="165.23 42.46 165.23 42.46 191.7 45.68 165.23 42.46"/><polygon class="cls-2" points="123.39 42.1 147.71 43.89 121.24 47.11 123.39 42.1"/><polygon class="cls-2" points="189.91 41.03 165.23 42.46 191.7 45.68 189.91 41.03"/><polygon class="cls-2" points="151.64 40.67 123.39 42.1 147.71 43.89 151.64 40.67"/><polygon class="cls-2" points="189.55 40.31 189.91 41.03 165.23 42.46 189.55 40.31"/><polygon class="cls-2" points="160.58 39.96 189.55 40.31 165.23 42.46 160.58 39.96"/><polygon class="cls-2" points="157.01 39.24 151.64 40.67 123.39 42.1 157.01 39.24"/><polygon class="cls-2" points="157.01 39.24 160.58 39.96 189.55 40.31 157.01 39.24"/><polygon class="cls-2" points="126.25 37.81 157.01 39.24 123.39 42.1 126.25 37.81"/><polygon class="cls-2" points="186.33 36.02 126.25 37.81 157.01 39.24 186.33 36.02"/><polygon class="cls-2" points="186.33 36.02 157.01 39.24 189.55 40.31 186.33 36.02"/><polygon class="cls-2" points="129.47 34.23 186.33 36.02 126.25 37.81 129.47 34.23"/><polygon class="cls-2" points="182.4 32.09 129.47 34.23 186.33 36.02 182.4 32.09"/><polygon class="cls-2" points="133.4 31.02 182.4 32.09 129.47 34.23 133.4 31.02"/><polygon class="cls-2" points="177.75 28.87 133.4 31.02 182.4 32.09 177.75 28.87"/><polygon class="cls-2" points="137.69 28.51 177.75 28.87 133.4 31.02 137.69 28.51"/><polygon class="cls-2" points="173.46 27.08 137.69 28.51 177.75 28.87 173.46 27.08"/><polygon class="cls-2" points="142.7 26.72 173.46 27.08 137.69 28.51 142.7 26.72"/><polygon class="cls-2" points="168.45 26.01 142.7 26.72 173.46 27.08 168.45 26.01"/><polygon class="cls-2" points="148.42 25.29 168.45 26.01 142.7 26.72 148.42 25.29"/><polygon class="cls-2" points="162.37 24.94 148.42 25.29 168.45 26.01 162.37 24.94"/><polygon class="cls-2" points="154.5 24.94 162.37 24.94 148.42 25.29 154.5 24.94"/><polygon class="cls-2" points="155.93 24.94 154.5 24.94 162.37 24.94 155.93 24.94"/><polygon class="cls-2" points="155.93 0.26 157.72 18.5 145.92 18.5 155.93 0.26"/><polygon class="cls-2" points="157.72 18.5 155.93 0.26 177.03 0.26 157.72 18.5"/><polygon class="cls-1" points="232.47 91.46 239.98 91.81 239.26 91.81 232.47 91.46"/><polygon class="cls-1" points="246.78 91.46 232.47 91.46 239.98 91.81 246.78 91.46"/><polygon class="cls-1" points="226.75 90.74 246.78 91.46 232.47 91.46 226.75 90.74"/><polygon class="cls-1" points="252.5 90.74 226.75 90.74 246.78 91.46 252.5 90.74"/><polygon class="cls-1" points="222.1 89.31 252.5 90.74 226.75 90.74 222.1 89.31"/><polygon class="cls-1" points="257.5 89.31 222.1 89.31 252.5 90.74 257.5 89.31"/><polygon class="cls-1" points="219.24 88.24 257.5 89.31 222.1 89.31 219.24 88.24"/><polygon class="cls-1" points="261.8 87.52 219.24 88.24 257.5 89.31 261.8 87.52"/><polygon class="cls-1" points="263.94 86.45 261.8 87.52 219.24 88.24 263.94 86.45"/><polygon class="cls-1" points="214.59 85.38 263.94 86.45 219.24 88.24 214.59 85.38"/><polygon class="cls-1" points="267.88 82.87 214.59 85.38 263.94 86.45 267.88 82.87"/><polygon class="cls-1" points="210.65 81.8 267.88 82.87 214.59 85.38 210.65 81.8"/><polygon class="cls-1" points="271.81 78.94 210.65 81.8 267.88 82.87 271.81 78.94"/><polygon class="cls-1" points="239.62 77.51 271.81 78.94 210.65 81.8 239.62 77.51"/><polygon class="cls-1" points="207.08 76.79 239.62 77.51 210.65 81.8 207.08 76.79"/><polygon class="cls-1" points="207.08 76.79 207.08 76.79 239.62 77.51 207.08 76.79"/><polygon class="cls-1" points="234.62 76.44 207.08 76.79 239.62 77.51 234.62 76.44"/><polygon class="cls-1" points="244.99 76.44 239.62 77.51 271.81 78.94 244.99 76.44"/><polygon class="cls-1" points="246.42 75.72 244.99 76.44 271.81 78.94 246.42 75.72"/><polygon class="cls-1" points="275.03 73.93 246.42 75.72 271.81 78.94 275.03 73.93"/><polygon class="cls-1" points="230.32 73.22 234.62 76.44 207.08 76.79 230.32 73.22"/><polygon class="cls-1" points="204.57 72.14 230.32 73.22 207.08 76.79 204.57 72.14"/><polygon class="cls-1" points="250.71 71.79 275.03 73.93 246.42 75.72 250.71 71.79"/><polygon class="cls-1" points="250.71 71.43 250.71 71.79 275.03 73.93 250.71 71.43"/><polygon class="cls-1" points="228.53 70.36 204.57 72.14 230.32 73.22 228.53 70.36"/><polygon class="cls-1" points="203.14 66.78 228.53 70.36 204.57 72.14 203.14 66.78"/><polygon class="cls-1" points="227.1 64.28 203.14 66.78 228.53 70.36 227.1 64.28"/><polygon class="cls-1" points="276.46 61.77 276.46 64.28 227.1 64.28 276.46 61.77"/><polygon class="cls-1" points="202.43 61.06 276.46 61.77 227.1 64.28 202.43 61.06"/><polygon class="cls-1" points="202.43 61.06 227.1 64.28 203.14 66.78 202.43 61.06"/><polygon class="cls-1" points="202.07 58.55 202.43 61.06 276.46 61.77 202.07 58.55"/><polygon class="cls-1" points="276.46 56.41 202.07 58.55 276.46 61.77 276.46 56.41"/><polygon class="cls-1" points="227.1 52.83 276.46 56.41 202.07 58.55 227.1 52.83"/><polygon class="cls-1" points="276.46 56.41 227.1 52.83 251.43 52.83 276.46 56.41"/><polygon class="cls-1" points="202.43 52.47 227.1 52.83 202.07 58.55 202.43 52.47"/><polygon class="cls-1" points="275.39 50.69 251.43 52.83 276.46 56.41 275.39 50.69"/><polygon class="cls-1" points="227.82 48.54 202.43 52.47 227.1 52.83 227.82 48.54"/><polygon class="cls-1" points="203.86 47.11 227.82 48.54 202.43 52.47 203.86 47.11"/><polygon class="cls-1" points="249.99 46.39 275.39 50.69 251.43 52.83 249.99 46.39"/><polygon class="cls-1" points="274.31 45.68 249.99 46.39 275.39 50.69 274.31 45.68"/><polygon class="cls-1" points="229.97 43.89 203.86 47.11 227.82 48.54 229.97 43.89"/><polygon class="cls-1" points="247.85 42.46 274.31 45.68 249.99 46.39 247.85 42.46"/><polygon class="cls-1" points="247.49 42.46 247.85 42.46 274.31 45.68 247.49 42.46"/><polygon class="cls-1" points="205.65 42.1 229.97 43.89 203.86 47.11 205.65 42.1"/><polygon class="cls-1" points="272.17 41.03 247.49 42.46 274.31 45.68 272.17 41.03"/><polygon class="cls-1" points="234.26 40.67 205.65 42.1 229.97 43.89 234.26 40.67"/><polygon class="cls-1" points="271.81 40.31 272.17 41.03 247.49 42.46 271.81 40.31"/><polygon class="cls-1" points="243.2 39.96 271.81 40.31 247.49 42.46 243.2 39.96"/><polygon class="cls-1" points="239.62 39.24 234.26 40.67 205.65 42.1 239.62 39.24"/><polygon class="cls-1" points="239.62 39.24 243.2 39.96 271.81 40.31 239.62 39.24"/><polygon class="cls-1" points="208.51 37.81 239.62 39.24 205.65 42.1 208.51 37.81"/><polygon class="cls-1" points="268.95 36.02 208.51 37.81 239.62 39.24 268.95 36.02"/><polygon class="cls-1" points="268.95 36.02 239.62 39.24 271.81 40.31 268.95 36.02"/><polygon class="cls-1" points="211.73 34.23 268.95 36.02 208.51 37.81 211.73 34.23"/><polygon class="cls-1" points="265.01 32.09 211.73 34.23 268.95 36.02 265.01 32.09"/><polygon class="cls-1" points="215.66 31.02 265.01 32.09 211.73 34.23 215.66 31.02"/><polygon class="cls-1" points="260.01 28.87 215.66 31.02 265.01 32.09 260.01 28.87"/><polygon class="cls-1" points="220.31 28.51 260.01 28.87 215.66 31.02 220.31 28.51"/><polygon class="cls-1" points="255.72 27.08 220.31 28.51 260.01 28.87 255.72 27.08"/><polygon class="cls-1" points="225.32 26.72 255.72 27.08 220.31 28.51 225.32 26.72"/><polygon class="cls-1" points="250.71 26.01 225.32 26.72 255.72 27.08 250.71 26.01"/><polygon class="cls-1" points="230.68 25.29 250.71 26.01 225.32 26.72 230.68 25.29"/><polygon class="cls-1" points="244.99 24.94 230.68 25.29 250.71 26.01 244.99 24.94"/><polygon class="cls-1" points="236.76 24.94 244.99 24.94 230.68 25.29 236.76 24.94"/><polygon class="cls-1" points="238.55 24.94 236.76 24.94 244.99 24.94 238.55 24.94"/><path class="cls-1" d="M410.93,64.94c-3.91,15.49-15.48,27-36.22,27-27.1,0-40.6-20.29-40.6-45.64,0-24.39,13.6-46.4,41.14-46.4,21.65,0,33.13,12.42,35.69,27.4h-13.3c-2.95-9.22-9.1-16.49-22.89-16.49C355.7,10.78,348,28.06,348,45.84,348,63,355.22,81,375.27,81c13.59,0,19.25-8,22.3-16.06Z" transform="translate(-0.7 0.13)"/><path class="cls-1" d="M440.6,65.05l-9.14,25.71H418.27L449.9,1.16h16.46l33,89.6H485.23l-9.45-25.71Zm31.92-11.26c-8.13-22.67-12.7-35.1-14.68-42.16h-.13c-2.19,7.84-7.3,22.78-13.84,42.16Z" transform="translate(-0.7 0.13)"/></svg>