<svg id="Layer_1" data-name="Layer 1" xmlns="http://www.w3.org/2000/svg" viewBox="0 0 168.77 79.64"><defs><style>.cls-1{fill:#ee7e31;}.cls-2{fill:#231f20;}</style></defs><path class="cls-1" d="M112.07.18l-4.43,4c-.62.56-1.19,1.18-1.83,1.72-1,.82-1.81,1.72-2.72,2.58s-2,1.81-3,2.73a.68.68,0,0,1-.56.17h-6.9a3.19,3.19,0,0,1,.48-1.08c1-1.87,2.1-3.74,3.16-5.61.81-1.44,1.62-2.87,2.41-4.31a.37.37,0,0,1,.36-.23Z" transform="translate(0.13 -0.18)"/><path class="cls-2" d="M-.13,1.25h15V11.46h-15Zm0,14.9h15V55.3h-15Z" transform="translate(0.13 -0.18)"/><path class="cls-2" d="M65.68,1.25v54H51.63V49.51a18.82,18.82,0,0,1-5.38,5A15.54,15.54,0,0,1,39,56.19q-8,0-12.22-6.09a25.22,25.22,0,0,1-4.22-14.78q0-9.74,4.66-14.9A15.24,15.24,0,0,1,39.1,15.26a16.46,16.46,0,0,1,6.35,1.18A14.39,14.39,0,0,1,50.52,20V1.25Zm-15,34.36q0-4.61-2-6.88a6.22,6.22,0,0,0-4.94-2.26,5.43,5.43,0,0,0-4.38,2.17q-1.77,2.17-1.77,7.3,0,4.8,1.82,7a5.64,5.64,0,0,0,4.52,2.24A6,6,0,0,0,48.72,43Q50.64,40.72,50.64,35.61Z" transform="translate(0.13 -0.18)"/><path class="cls-1" d="M118.29,39.44H88.21a9.75,9.75,0,0,0,2,5.39,7.11,7.11,0,0,0,5.68,2.54,8.58,8.58,0,0,0,4.2-1.1,9.74,9.74,0,0,0,2.62-2.47l14.79,1.36a21.3,21.3,0,0,1-8.19,8.46q-4.79,2.57-13.75,2.56-7.79,0-12.24-2.19a17.91,17.91,0,0,1-7.39-7A21,21,0,0,1,73,35.79q0-9.18,5.88-14.85t16.24-5.68q8.4,0,13.27,2.54a17.15,17.15,0,0,1,7.41,7.38q2.55,4.83,2.54,12.56ZM103,32.26c-.3-2.9-1.08-5-2.34-6.23A7.34,7.34,0,0,0,90,27a10.44,10.44,0,0,0-1.73,5.27Z" transform="translate(0.13 -0.18)"/><path class="cls-2" d="M168.65,39.44H138.56a9.75,9.75,0,0,0,2,5.39,7.09,7.09,0,0,0,5.67,2.54,8.59,8.59,0,0,0,4.21-1.1A10,10,0,0,0,153,43.8l14.78,1.36a21.17,21.17,0,0,1-8.19,8.46q-4.79,2.57-13.75,2.56-7.77,0-12.24-2.19a18,18,0,0,1-7.39-7A21,21,0,0,1,123.3,35.8q0-9.18,5.88-14.86t16.24-5.68q8.42,0,13.27,2.55a17.07,17.07,0,0,1,7.41,7.37q2.55,4.83,2.55,12.57Zm-15.26-7.18c-.3-2.9-1.08-5-2.34-6.23a7.34,7.34,0,0,0-10.72.95,10.44,10.44,0,0,0-1.73,5.27Z" transform="translate(0.13 -0.18)"/><path class="cls-2" d="M8,79.82H5.17a3.21,3.21,0,0,1-2.68-1.43,5,5,0,0,1-.88-3.07v-9a5.17,5.17,0,0,1,1.26-3.53,3.2,3.2,0,0,1,2.3-1H8c.38,0,.7.43.7.92a.81.81,0,0,1-.7.88H5.17a1.76,1.76,0,0,0-1.45.68,2.79,2.79,0,0,0-.68,2v9a2.85,2.85,0,0,0,.54,1.89,2,2,0,0,0,1.6.81H8c.38,0,.7.43.7.91A.83.83,0,0,1,8,79.82Z" transform="translate(0.13 -0.18)"/><path class="cls-2" d="M16.87,79.82a.82.82,0,0,1-.7-.89V70.85a1.89,1.89,0,0,0-.4-1.23,1.24,1.24,0,0,0-1-.57H11.92v9.88a.84.84,0,0,1-.72.88.81.81,0,0,1-.7-.88V62.77c0-.49.31-.92.7-.92a.86.86,0,0,1,.72.92v4.47h2.83a2.34,2.34,0,0,1,2,1.07,3.79,3.79,0,0,1,.79,2.53v8.08A.82.82,0,0,1,16.87,79.82Z" transform="translate(0.13 -0.18)"/><path class="cls-2" d="M26.3,79.53a.61.61,0,0,1-.55.29H21.49c-1.38,0-2.13-1.83-2.13-3.58s.75-3.61,2.13-3.61h3.56V70.85a1.92,1.92,0,0,0-.43-1.29,1.14,1.14,0,0,0-1-.51H20.79a.83.83,0,0,1-.72-.89.86.86,0,0,1,.72-.91h2.83a2.34,2.34,0,0,1,2,1,3.77,3.77,0,0,1,.81,2.58v8.08A1.16,1.16,0,0,1,26.3,79.53Zm-1.25-5.1H21.49c-.62,0-.7,1-.7,1.81s.08,1.78.7,1.78h3.56Z" transform="translate(0.13 -0.18)"/><path class="cls-2" d="M33.54,70.75a.65.65,0,0,1-.88-.21s0,0,0,0A2.69,2.69,0,0,0,32,69.4a1.16,1.16,0,0,0-.93-.36H29.66v9.88a.81.81,0,0,1-.72.86.79.79,0,0,1-.7-.86V68.14a1.07,1.07,0,0,1,.21-.67.63.63,0,0,1,.49-.24h2.13A2.39,2.39,0,0,1,33,68a3.05,3.05,0,0,1,.91,1.64A1,1,0,0,1,33.54,70.75Z" transform="translate(0.13 -0.18)"/><path class="cls-2" d="M40.6,69.05H38.48v9.88a.72.72,0,1,1-1.41,0V69.05h-.72a.82.82,0,0,1-.7-.89c0-.48.32-.91.7-.91h.72V62.78c0-.49.32-.92.7-.92a.85.85,0,0,1,.71.92v4.47H40.6a.85.85,0,0,1,.72.91A.83.83,0,0,1,40.6,69.05Z" transform="translate(0.13 -0.18)"/><path class="cls-2" d="M49.52,79.82H46a2.34,2.34,0,0,1-2-1,3.75,3.75,0,0,1-.78-2.53V72.63l0-.9c.08-2.45,1.57-4.47,3.53-4.49s3.53,2,3.53,4.49v1.81a.84.84,0,0,1-.17.59.6.6,0,0,1-.54.3h-5v1.8A1.78,1.78,0,0,0,45,77.49,1.18,1.18,0,0,0,46,78h3.55a.94.94,0,0,1,0,1.82Zm-.7-8.08a2.47,2.47,0,0,0-2.13-2.69,2.47,2.47,0,0,0-2.13,2.69v.9h4.26Z" transform="translate(0.13 -0.18)"/><path class="cls-2" d="M57.31,70.75a.63.63,0,0,1-.87-.21.05.05,0,0,1,0,0c-.22-.43-.28-.8-.64-1.1a1.19,1.19,0,0,0-.94-.36h-1.4v9.88a.81.81,0,0,1-.72.86.79.79,0,0,1-.7-.86V68.14a1,1,0,0,1,.21-.67.63.63,0,0,1,.49-.24h2.13a2.38,2.38,0,0,1,1.89.75,3.05,3.05,0,0,1,.91,1.64A1,1,0,0,1,57.31,70.75Z" transform="translate(0.13 -0.18)"/><path class="cls-2" d="M65.85,79.82H62.29a2.32,2.32,0,0,1-2-1,3.76,3.76,0,0,1-.79-2.53V72.63l0-.9c.09-2.45,1.58-4.47,3.54-4.49s3.53,2,3.53,4.49v1.81a.84.84,0,0,1-.17.59.6.6,0,0,1-.54.3h-5v1.8a1.78,1.78,0,0,0,.38,1.26,1.19,1.19,0,0,0,1,.51h3.56c.38,0,.7.43.7.91A.84.84,0,0,1,65.85,79.82Zm-.7-8.08A2.47,2.47,0,0,0,63,69.05a2.47,2.47,0,0,0-2.13,2.69v.9h4.26Z" transform="translate(0.13 -0.18)"/><path class="cls-2" d="M75.21,79.53a.59.59,0,0,1-.49.29H71.1a2.37,2.37,0,0,1-2.06-1,3.63,3.63,0,0,1-.77-2.58V70.85a3.78,3.78,0,0,1,.81-2.58,2.26,2.26,0,0,1,2-1H74V62.78c0-.49.32-.92.7-.92s.7.43.7.92V78.93A.94.94,0,0,1,75.21,79.53ZM74,69.05H71.1a1.14,1.14,0,0,0-1,.51,2,2,0,0,0-.42,1.29v5.39a1.93,1.93,0,0,0,.42,1.29,1.15,1.15,0,0,0,1,.49H74Z" transform="translate(0.13 -0.18)"/><path class="cls-2" d="M97.35,79.82a.72.72,0,0,1-.68-.65l-1.24-4.74H90.76l-1.25,4.74c-.11.41-.24.65-.68.65s-.81-.67-.68-1.21l4.27-16.16a.72.72,0,0,1,.71-.59.63.63,0,0,1,.61.54l4.33,16.32A.91.91,0,0,1,97.35,79.82Zm-4.22-14.3-1.89,7.11H95Z" transform="translate(0.13 -0.18)"/><path class="cls-2" d="M104.71,70.75a.63.63,0,0,1-.87-.21l0,0a2.79,2.79,0,0,0-.63-1.1,1.19,1.19,0,0,0-.94-.36h-1.4v9.88a.82.82,0,0,1-.72.86.8.8,0,0,1-.71-.86V68.14a1,1,0,0,1,.22-.67.63.63,0,0,1,.49-.24h2.13a2.38,2.38,0,0,1,1.89.75,3.14,3.14,0,0,1,.92,1.64A1.06,1.06,0,0,1,104.71,70.75Z" transform="translate(0.13 -0.18)"/><path class="cls-2" d="M111.82,79.82h-2.13a2.32,2.32,0,0,1-2-1,3.74,3.74,0,0,1-.79-2.58V70.85a3.73,3.73,0,0,1,.81-2.58,2.26,2.26,0,0,1,2-1h2.13a.86.86,0,0,1,.72.91.83.83,0,0,1-.72.89h-2.13a1.14,1.14,0,0,0-1,.51,1.89,1.89,0,0,0-.4,1.29v5.39a1.86,1.86,0,0,0,.4,1.29,1.15,1.15,0,0,0,1,.49h2.13a.86.86,0,0,1,.72.91A.83.83,0,0,1,111.82,79.82Z" transform="translate(0.13 -0.18)"/><path class="cls-2" d="M120.7,79.82a.81.81,0,0,1-.7-.89V70.85a1.9,1.9,0,0,0-.41-1.23,1.24,1.24,0,0,0-1-.57h-2.83v9.88a.83.83,0,0,1-.72.88.81.81,0,0,1-.7-.88V62.77c0-.49.32-.92.7-.92a.86.86,0,0,1,.72.92v4.47h2.83a2.33,2.33,0,0,1,2,1.07,3.74,3.74,0,0,1,.79,2.53v8.08A.82.82,0,0,1,120.7,79.82Z" transform="translate(0.13 -0.18)"/><path class="cls-2" d="M123,62.78c0-1.54,1.79-1.54,1.79,0S123,64.28,123,62.78Zm.89,17a.82.82,0,0,1-.7-.89V68.16c0-.49.32-.92.7-.92a.86.86,0,0,1,.72.92V78.93a.83.83,0,0,1-.72.89Z" transform="translate(0.13 -0.18)"/><path class="cls-2" d="M131.72,69.05h-2.13v9.88a.72.72,0,1,1-1.4,0V69.05h-.72a.82.82,0,0,1-.7-.89c0-.48.32-.91.7-.91h.72V62.78c0-.49.32-.92.7-.92s.7.43.7.92v4.47h2.13a.85.85,0,0,1,.72.91A.83.83,0,0,1,131.72,69.05Z" transform="translate(0.13 -0.18)"/><path class="cls-2" d="M140.64,79.82h-3.56a2.32,2.32,0,0,1-2-1,3.71,3.71,0,0,1-.79-2.53V72.63l0-.9c.09-2.45,1.58-4.47,3.54-4.49s3.53,2,3.53,4.49v1.81a1,1,0,0,1-.17.59.6.6,0,0,1-.54.3h-4.95v1.8a1.78,1.78,0,0,0,.38,1.26,1.19,1.19,0,0,0,1,.51h3.56c.38,0,.7.43.7.91A.84.84,0,0,1,140.64,79.82Zm-.7-8.08a2.19,2.19,0,1,0-4.26,0v.9h4.26Z" transform="translate(0.13 -0.18)"/><path class="cls-2" d="M148.09,79.82H146a2.31,2.31,0,0,1-2-1,3.74,3.74,0,0,1-.79-2.58V70.85a3.73,3.73,0,0,1,.81-2.58,2.25,2.25,0,0,1,2-1h2.13a.86.86,0,0,1,.72.91.83.83,0,0,1-.72.89H146a1.14,1.14,0,0,0-1,.51,1.89,1.89,0,0,0-.4,1.29v5.39a1.86,1.86,0,0,0,.4,1.29,1.1,1.1,0,0,0,1,.49h2.13a.86.86,0,0,1,.72.91A.83.83,0,0,1,148.09,79.82Z" transform="translate(0.13 -0.18)"/><path class="cls-2" d="M155.5,69.05h-2.13v9.88a.72.72,0,1,1-1.41,0V69.05h-.72a.82.82,0,0,1-.7-.89c0-.48.32-.91.7-.91H152V62.78a.85.85,0,0,1,.71-.92c.38,0,.7.43.7.92v4.47h2.13a.85.85,0,0,1,.71.91A.83.83,0,0,1,155.5,69.05Z" transform="translate(0.13 -0.18)"/><path class="cls-2" d="M160.86,79.82a5.58,5.58,0,0,1-2.41-.56.79.79,0,0,1-.42-.79.82.82,0,0,1,.9-.88,5,5,0,0,0,1.93.43,1.37,1.37,0,0,0,1.44-1.35c0-.27,0-.32-.28-.67l-3.28-3.53a3.06,3.06,0,0,1-.7-2.07c0-2.51,1.72-3.15,2.83-3.15a4.91,4.91,0,0,1,2,.53.76.76,0,0,1,.47.81c0,.59-.34,1-.91.86a5.48,5.48,0,0,0-1.58-.4,1.37,1.37,0,0,0-1.4,1.35,1.22,1.22,0,0,0,.19.61l3.41,3.67a3.21,3.21,0,0,1-2.21,5.14Z" transform="translate(0.13 -0.18)"/></svg>