<?xml version="1.0" encoding="utf-8"?>
<!-- Generator: Adobe Illustrator 25.4.1, SVG Export Plug-In . SVG Version: 6.00 Build 0)  -->
<svg version="1.1" id="Layer_1" xmlns="http://www.w3.org/2000/svg" xmlns:xlink="http://www.w3.org/1999/xlink" x="0px" y="0px"
	 viewBox="0 0 501.9 219.1" style="enable-background:new 0 0 501.9 219.1;" xml:space="preserve">
<style type="text/css">
	.st0{fill:#FFFFFF;}
	.st1{fill:#ED7D31;}
	.st2{fill:none;}
	.st3{font-family:'Arial-Black';}
	.st4{font-size:30px;}
</style>
<path class="st0" d="M413.4,65.1c-3.9,15.5-15.5,27-36.2,27c-27.1,0-40.6-20.3-40.6-45.6c0-24.4,13.6-46.4,41.1-46.4
	c21.7,0,33.1,12.4,35.7,27.4h-13.3c-3-9.2-9.1-16.5-22.9-16.5c-19,0-26.8,17.3-26.8,35.1c0,17.1,7.2,35.2,27.3,35.2
	c13.6,0,19.2-8,22.3-16.1L413.4,65.1z"/>
<path class="st0" d="M443.1,65.2L434,90.9h-13.2l31.6-89.6h16.5l33,89.6h-14.2l-9.5-25.7H443.1z M475,53.9
	c-8.1-22.7-12.7-35.1-14.7-42.2h-0.1c-2.2,7.8-7.3,22.8-13.8,42.2H475z"/>
<g>
	<path class="st0" d="M1.8,2h23.8v16.2H1.8V2z M1.8,25.7h23.8v62.2H1.8V25.7z"/>
	<path class="st0" d="M106.4,2v85.9H84.1v-9.2c-3.1,3.9-6,6.5-8.6,7.9c-3.4,1.8-7.3,2.7-11.5,2.7c-8.5,0-15-3.2-19.4-9.7
		c-4.5-6.4-6.7-14.3-6.7-23.5c0-10.3,2.5-18.2,7.4-23.7s11.2-8.2,18.8-8.2c3.7,0,7.1,0.6,10.1,1.9s5.7,3.1,8.1,5.6V2H106.4z
		 M82.5,56.6c0-4.9-1-8.5-3.1-10.9s-4.7-3.6-7.9-3.6c-2.8,0-5.1,1.2-7,3.5s-2.8,6.2-2.8,11.6c0,5.1,1,8.8,2.9,11.2
		c1.9,2.4,4.3,3.5,7.2,3.5c3,0,5.6-1.2,7.6-3.6C81.5,65.9,82.5,62,82.5,56.6z"/>
	<path class="st1" d="M190,62.7h-47.8c0.4,3.8,1.5,6.7,3.1,8.6c2.3,2.7,5.3,4,9,4c2.3,0,4.6-0.6,6.7-1.8c1.3-0.7,2.7-2.1,4.2-3.9
		l23.5,2.2c-3.6,6.3-7.9,10.7-13,13.4c-5.1,2.7-12.4,4.1-21.9,4.1c-8.2,0-14.7-1.2-19.5-3.5c-4.7-2.3-8.6-6-11.7-11.1
		s-4.7-11-4.7-17.8c0-9.7,3.1-17.6,9.3-23.6c6.2-6,14.8-9,25.8-9c8.9,0,15.9,1.3,21.1,4s9.1,6.6,11.8,11.7s4,11.8,4,20L190,62.7
		L190,62.7z M165.8,51.3c-0.5-4.6-1.7-7.9-3.7-9.9c-2-2-4.7-3-7.9-3c-3.8,0-6.8,1.5-9.1,4.5c-1.4,1.9-2.4,4.7-2.8,8.4
		C142.3,51.3,165.8,51.3,165.8,51.3z"/>
	<path class="st0" d="M270.1,62.7h-47.8c0.4,3.8,1.5,6.7,3.1,8.6c2.3,2.7,5.3,4,9,4c2.3,0,4.6-0.6,6.7-1.8c1.3-0.7,2.7-2.1,4.2-3.9
		l23.5,2.2c-3.6,6.3-7.9,10.7-13,13.4c-5.1,2.7-12.4,4.1-21.9,4.1c-8.2,0-14.7-1.2-19.5-3.5c-4.7-2.3-8.6-6-11.7-11.1
		c-3.1-5.1-4.7-11-4.7-17.8c0-9.7,3.1-17.6,9.3-23.6s14.8-9,25.8-9c8.9,0,15.9,1.3,21.1,4s9.1,6.6,11.8,11.7c2.7,5.1,4,11.8,4,20
		v2.7C270,62.7,270.1,62.7,270.1,62.7z M245.8,51.3c-0.5-4.6-1.7-7.9-3.7-9.9c-2-2-4.7-3-7.9-3c-3.8,0-6.8,1.5-9.1,4.5
		c-1.4,1.9-2.4,4.7-2.8,8.4C222.3,51.3,245.8,51.3,245.8,51.3z"/>
</g>
<polygon class="st1" points="139.4,18.5 151.2,18.5 170.5,0.3 149.4,0.3 "/>
<rect y="197.9" class="st2" width="501.9" height="42.4"/>
<text transform="matrix(1 0 0 1 75.1855 197.9002)" class="st0 st3 st4">architecture + design</text>
</svg>
