<?xml version="1.0" encoding="utf-8"?>
<!-- Generator: Adobe Illustrator 25.4.1, SVG Export Plug-In . SVG Version: 6.00 Build 0)  -->
<svg version="1.1" id="Layer_1" xmlns="http://www.w3.org/2000/svg" xmlns:xlink="http://www.w3.org/1999/xlink" x="0px" y="0px"
	 viewBox="0 0 1024 1024" style="enable-background:new 0 0 1024 1024;" xml:space="preserve">
<style type="text/css">
	.st0{fill:#FFFFFF;}
	.st1{display:none;fill:#A9A9A9;}
	.st2{display:none;}
	.st3{display:inline;fill:#A9A9A9;}
	.st4{display:inline;fill:#FFFFFF;}
	.st5{fill:#A9A9A9;}
</style>
<circle class="st0" cx="511.8" cy="512" r="512"/>
<polyline class="st1" points="331.4,688.8 253.8,688.8 253.8,440.8 512,308.6 770.2,440.8 770.2,688.8 421.2,688.8 421.2,487.4 
	331.4,487.4 331.4,688.8 "/>
<g class="st2">
	<rect x="387.3" y="648.1" class="st3" width="249.3" height="104.7"/>
	<rect x="387.3" y="530.5" class="st3" width="249.3" height="104.7"/>
	<rect x="387.3" y="285.8" class="st3" width="249.3" height="104.7"/>
	<rect x="387.2" y="403.5" class="st3" width="34.3" height="104.7"/>
	<rect x="469.6" y="403.5" class="st3" width="166.8" height="104.7"/>
</g>
<g class="st2">
	<polyline class="st3" points="241,673.7 241,444.8 421.6,357 421.6,442.4 602.1,354.6 602.1,439.9 782.6,352.2 782.6,673.7 
		241,673.7 	"/>
	<rect x="289.2" y="474.2" class="st4" width="71" height="73.4"/>
</g>
<polyline class="st1" points="387,266.8 636.7,266.8 636.7,391.6 761.4,391.6 761.4,641.1 636.7,641.1 636.7,765.9 387,765.9 
	387,641.1 262.2,641.1 262.2,391.6 387,391.6 387,266.8 "/>
<path class="st1" d="M258.8,729.9h46.1V549.4c0-29.8,24.2-54,54.1-54s54.1,24.2,54.1,54l0,0v180.6h44.8V549.4
	c0-29.8,24.2-54,54.1-54c29.8,0,54.1,24.2,54.1,54l0,0v180.6h44.8V549.4c0-29.8,24.2-54,54.1-54c29.8,0,54.1,24.2,54.1,54l0,0v180.6
	h46.1V413.2H258.8V729.9 M302.6,379l210.7-114.7L724.1,379H302.6"/>
<path class="st1" d="M418.4,767.7h169.2V349.6c0-50.3-40.9-91.2-91.3-91.2s-91.3,40.9-91.3,91.2l0,0c0,7.3,5.9,13.2,13.2,13.2
	c7.3,0,13.2-5.9,13.2-13.2l0,0c0-34.9,28.4-63.3,63.4-63.3c33.2,0,60.7,25.6,63.2,58.7l0,0v52.8c0,32.2-19.5,61.1-49.4,73.2l0,0
	c-17,6.8-34.3,12.6-52,17l0,0c-21.9,5.6-37.6,24.7-38.8,47.3l0,0v232.5L418.4,767.7"/>
<path class="st5" d="M511.8,299.1L257.4,429.4v244.3h76.5h88.5h343.8V429.4L511.8,299.1z M601.4,634.7h-38.6v-93.4h-141v94.3H382
	v-1.7V502.3h178.3V395.2h41.1V634.7z"/>
</svg>
