<?xml version="1.0" encoding="utf-8"?>
<!-- Generator: Adobe Illustrator 25.4.1, SVG Export Plug-In . SVG Version: 6.00 Build 0)  -->
<svg version="1.1" id="Layer_1" xmlns="http://www.w3.org/2000/svg" xmlns:xlink="http://www.w3.org/1999/xlink" x="0px" y="0px"
	 viewBox="0 0 501.9 151.4" style="enable-background:new 0 0 501.9 151.4;" xml:space="preserve">
<style type="text/css">
	.st0{fill:#FFFFFF;}
	.st1{fill:#ED7D31;}
</style>
<path class="st0" d="M413.4,65.1c-3.9,15.5-15.5,27-36.2,27c-27.1,0-40.6-20.3-40.6-45.6c0-24.4,13.6-46.4,41.1-46.4
	c21.7,0,33.1,12.4,35.7,27.4h-13.3c-3-9.2-9.1-16.5-22.9-16.5c-19,0-26.8,17.3-26.8,35.1c0,17.1,7.2,35.2,27.3,35.2
	c13.6,0,19.2-8,22.3-16.1L413.4,65.1z"/>
<path class="st0" d="M443.1,65.2L434,90.9h-13.2l31.6-89.6h16.5l33,89.6h-14.2l-9.5-25.7H443.1z M475,53.9
	c-8.1-22.7-12.7-35.1-14.7-42.2h-0.1c-2.2,7.8-7.3,22.8-13.8,42.2H475z"/>
<path class="st0" d="M23.9,142.3c-1.1,4.7-4.3,9.1-11.6,9.1c-7.8,0-12.4-5.5-12.4-14.2c0-7.8,4.5-14.5,12.7-14.5s10.9,5.8,11.2,9.3
	h-5.2c-0.6-2.7-2.3-4.9-6.1-4.9c-4.6,0-7.2,4-7.2,10s2.6,10.1,7,10.1c3.3,0,5.2-1.8,6.2-4.8L23.9,142.3z"/>
<path class="st0" d="M35.8,111.2v16c1.7-3,5-4.7,8.5-4.5c4.5,0,9.2,2.5,9.2,10.6v17.6h-5.3v-16.7c0-4.5-1.8-6.9-5.7-6.9
	c-4.8,0-6.7,3.2-6.7,8.7v14.9h-5.3v-39.6L35.8,111.2z"/>
<path class="st0" d="M83.1,144.6c0,2.1,0.1,4.2,0.4,6.2h-5.1c-0.3-1.1-0.4-2.3-0.4-3.4c-1,1.8-3.1,4.1-8.3,4.1
	c-6.5,0-9.3-4.2-9.3-8.4c0-6.2,4.9-9,13-9h4.5v-2.2c0-2.3-0.8-5.1-5.6-5.1c-4.3,0-5.1,2.1-5.6,4.2h-5.1c0.4-4,2.8-8.3,10.8-8.3
	c6.8,0,10.6,2.8,10.6,9.1V144.6z M77.9,137.6h-4.2c-5.3,0-8,1.5-8,5.1c0,2.7,1.8,4.7,5.1,4.7c6.3,0,7.1-4.2,7.1-9V137.6z"/>
<path class="st0" d="M92.1,130.8c0-3.6,0-5.8-0.1-7.5h5.2c0.1,0.7,0.2,3,0.2,5.5c1.4-3.6,4.6-6,9.2-6.1v5.2
	c-5.6,0.1-9.2,2.8-9.2,9.8v13.1h-5.3L92.1,130.8z"/>
<path class="st0" d="M110.6,123.3h4.7v-8h5.3v8h5.9v4.2h-5.9v15.6c0,2.6,0.7,3.8,3.1,3.8c0.8,0,1.5-0.1,2.3-0.2v3.9
	c-1.4,0.4-2.9,0.6-4.3,0.5c-4.5,0-6.4-2.4-6.4-7v-16.6h-4.7V123.3z"/>
<path class="st0" d="M135.8,138.1c0,5.2,2.6,9,7.1,9c4.1,0,5.4-2,6.3-4h5.3c-1.1,3.5-4,8.4-11.8,8.4c-8.7,0-12.3-7-12.3-14.1
	c0-8.3,4.2-14.7,12.6-14.7c9,0,11.9,7.1,11.9,13.1c0,0.8,0,1.5-0.1,2.3L135.8,138.1z M149.6,134.5c0-4.3-2.1-7.7-6.6-7.7
	s-6.6,3.2-7.1,7.7H149.6z"/>
<path class="st0" d="M162,130.8c0-3.6,0-5.8-0.1-7.5h5.2c0.1,0.7,0.2,3,0.2,5.5c1.4-3.6,4.6-6,9.2-6.1v5.2c-5.6,0.1-9.2,2.8-9.2,9.8
	v13.1H162V130.8z"/>
<path class="st0" d="M185.6,138.1c0,5.2,2.6,9,7.1,9c4.1,0,5.4-2,6.3-4h5.3c-1.1,3.5-4,8.4-11.8,8.4c-8.7,0-12.3-7-12.3-14.1
	c0-8.3,4.2-14.7,12.6-14.7c9,0,11.9,7.1,11.9,13.1c0,0.8,0,1.5-0.1,2.3L185.6,138.1z M199.4,134.5c-0.1-4.3-2.1-7.7-6.6-7.7
	s-6.6,3.2-7.1,7.7H199.4z"/>
<path class="st0" d="M235.4,111.2v31.9c0,2.6,0,5.1,0.1,7.7h-5.1c-0.1-1.2-0.2-2.5-0.3-3.7c-1.4,2.7-4.1,4.4-8.5,4.4
	c-7,0-11.4-5.7-11.4-14.1s4.7-14.7,12.3-14.7c4.7,0,6.9,1.9,7.6,3.3v-14.8H235.4z M215.7,137.2c0,6.4,2.9,9.9,7.1,9.9
	c6.2,0,7.5-4.7,7.5-10.3c0-5.8-1.2-9.6-7.1-9.6C218.5,127.1,215.7,130.8,215.7,137.2L215.7,137.2z"/>
<path class="st0" d="M279.9,144.6c0,2.1,0.1,4.2,0.4,6.2h-5.1c-0.3-1.1-0.4-2.3-0.4-3.4c-1,1.8-3.1,4.1-8.3,4.1
	c-6.5,0-9.3-4.2-9.3-8.4c0-6.2,4.9-9,13-9h4.5v-2.2c0-2.3-0.8-5.1-5.6-5.1c-4.3,0-5.1,2.1-5.5,4.2h-5.1c0.4-4,2.9-8.3,10.8-8.3
	c6.8,0,10.6,2.8,10.6,9.1L279.9,144.6z M274.7,137.6h-4.2c-5.3,0-8,1.5-8,5.1c0,2.7,1.8,4.7,5.1,4.7c6.3,0,7.1-4.2,7.1-9
	L274.7,137.6z"/>
<path class="st0" d="M288.9,130.8c0-3.6,0-5.8-0.1-7.5h5.2c0.1,0.7,0.2,3,0.2,5.5c1.4-3.6,4.6-6,9.2-6.1v5.2
	c-5.6,0.1-9.2,2.8-9.2,9.8v13.1h-5.3L288.9,130.8z"/>
<path class="st0" d="M331.1,142.3c-1.1,4.7-4.3,9.1-11.6,9.1c-7.8,0-12.4-5.5-12.4-14.2c0-7.8,4.5-14.6,12.7-14.6s10.9,5.8,11.2,9.3
	h-5.2c-0.6-2.7-2.3-4.9-6.1-4.9c-4.6,0-7.2,4-7.2,10s2.6,10.1,7,10.1c3.3,0,5.2-1.8,6.2-4.8L331.1,142.3z"/>
<path class="st0" d="M343,111.2v16c1.4-2.3,3.8-4.5,8.4-4.5s9.2,2.5,9.2,10.6v17.6h-5.3v-16.7c0-4.5-1.9-6.9-5.7-6.9
	c-4.8,0-6.7,3.2-6.7,8.7v14.9h-5.3v-39.6L343,111.2z"/>
<path class="st0" d="M369.6,111.2h5.3v6.1h-5.3V111.2z M369.6,123.3h5.3v27.5h-5.3V123.3z"/>
<path class="st0" d="M380.7,123.3h4.6v-8h5.4v8h5.9v4.2h-5.9v15.6c0,2.6,0.6,3.8,3.1,3.8c0.8,0,1.5-0.1,2.3-0.2v3.9
	c-1.4,0.4-2.8,0.6-4.3,0.5c-4.5,0-6.4-2.4-6.4-7v-16.6h-4.7V123.3z"/>
<path class="st0" d="M405.9,138.1c0,5.2,2.6,9,7.1,9c4.1,0,5.4-2,6.3-4h5.3c-1.1,3.5-4,8.4-11.8,8.4c-8.7,0-12.3-7-12.3-14.1
	c0-8.3,4.2-14.7,12.6-14.7c9,0,11.9,7.1,11.9,13.1c0,0.9,0,1.5-0.1,2.3L405.9,138.1z M419.7,134.4c0-4.3-2.1-7.7-6.6-7.7
	s-6.6,3.2-7,7.7H419.7z"/>
<path class="st0" d="M454.5,142.3c-1.1,4.7-4.3,9.1-11.5,9.1c-7.8,0-12.4-5.5-12.4-14.2c0-7.8,4.5-14.6,12.7-14.6s10.9,5.8,11.2,9.3
	h-5.2c-0.6-2.7-2.3-4.9-6.1-4.9c-4.6,0-7.2,4-7.2,10s2.5,10.1,7,10.1c3.3,0,5.2-1.8,6.2-4.8L454.5,142.3z"/>
<path class="st0" d="M458.3,123.3h4.7v-8h5.3v8h5.9v4.2h-5.9v15.6c0,2.6,0.6,3.8,3.1,3.8c0.8,0,1.5-0.1,2.3-0.2v3.9
	c-1.4,0.4-2.9,0.6-4.3,0.5c-4.5,0-6.4-2.4-6.4-7v-16.6h-4.7L458.3,123.3z"/>
<path class="st0" d="M483.7,142.8c0.8,2.9,2.9,4.5,6.4,4.5c3.8,0,5.3-1.6,5.3-3.9s-1.2-3.5-6.2-4.7c-8.1-2-9.7-4.4-9.7-8.2
	c0-3.9,2.9-7.8,10.2-7.8s10.2,4.2,10.6,8h-5.1c-0.4-1.6-1.6-4-5.7-4c-3.6,0-4.7,1.7-4.7,3.4c0,1.9,1.1,2.9,6,4
	c8.5,2,10.1,4.9,10.1,8.9c0,4.8-3.8,8.4-10.9,8.4c-7.4,0-10.8-3.7-11.5-8.6L483.7,142.8z"/>
<g>
	<path d="M1.8,2h23.8v16.2H1.8V2z M1.8,25.7h23.8v62.2H1.8V25.7z"/>
	<path d="M106.4,2v85.9H84.1v-9.2c-3.1,3.9-6,6.5-8.6,7.9c-3.4,1.8-7.3,2.7-11.5,2.7c-8.5,0-15-3.2-19.4-9.7
		c-4.5-6.4-6.7-14.3-6.7-23.5c0-10.3,2.5-18.2,7.4-23.7c4.9-5.5,11.2-8.2,18.8-8.2c3.7,0,7.1,0.6,10.1,1.9c3,1.3,5.7,3.1,8.1,5.6V2
		H106.4z M82.5,56.6c0-4.9-1-8.5-3.1-10.9c-2.1-2.4-4.7-3.6-7.9-3.6c-2.8,0-5.1,1.2-7,3.5c-1.9,2.3-2.8,6.2-2.8,11.6
		c0,5.1,1,8.8,2.9,11.2c1.9,2.4,4.3,3.5,7.2,3.5c3,0,5.6-1.2,7.6-3.6C81.5,65.9,82.5,62,82.5,56.6z"/>
	<path class="st1" d="M190,62.7h-47.8c0.4,3.8,1.5,6.7,3.1,8.6c2.3,2.7,5.3,4,9,4c2.3,0,4.6-0.6,6.7-1.8c1.3-0.7,2.7-2.1,4.2-3.9
		l23.5,2.2c-3.6,6.3-7.9,10.7-13,13.4c-5.1,2.7-12.4,4.1-21.9,4.1c-8.2,0-14.7-1.2-19.5-3.5c-4.7-2.3-8.6-6-11.7-11.1
		c-3.1-5.1-4.7-11-4.7-17.8c0-9.7,3.1-17.6,9.3-23.6c6.2-6,14.8-9,25.8-9c8.9,0,15.9,1.3,21.1,4s9.1,6.6,11.8,11.7
		c2.7,5.1,4,11.8,4,20V62.7z M165.8,51.3c-0.5-4.6-1.7-7.9-3.7-9.9c-2-2-4.7-3-7.9-3c-3.8,0-6.8,1.5-9.1,4.5
		c-1.4,1.9-2.4,4.7-2.8,8.4H165.8z"/>
	<path d="M270.1,62.7h-47.8c0.4,3.8,1.5,6.7,3.1,8.6c2.3,2.7,5.3,4,9,4c2.3,0,4.6-0.6,6.7-1.8c1.3-0.7,2.7-2.1,4.2-3.9l23.5,2.2
		c-3.6,6.3-7.9,10.7-13,13.4c-5.1,2.7-12.4,4.1-21.9,4.1c-8.2,0-14.7-1.2-19.5-3.5c-4.7-2.3-8.6-6-11.7-11.1
		c-3.1-5.1-4.7-11-4.7-17.8c0-9.7,3.1-17.6,9.3-23.6c6.2-6,14.8-9,25.8-9c8.9,0,15.9,1.3,21.1,4s9.1,6.6,11.8,11.7
		c2.7,5.1,4,11.8,4,20V62.7z M245.8,51.3c-0.5-4.6-1.7-7.9-3.7-9.9c-2-2-4.7-3-7.9-3c-3.8,0-6.8,1.5-9.1,4.5
		c-1.4,1.9-2.4,4.7-2.8,8.4H245.8z"/>
</g>
<polygon class="st1" points="139.4,18.5 151.2,18.5 170.5,0.3 149.4,0.3 "/>
</svg>
